<svg xmlns="http://www.w3.org/2000/svg" viewBox="0 0 100 100">
  <defs>
    <linearGradient id="grad" x1="0%" y1="0%" x2="100%" y2="100%">
      <stop offset="0%" style="stop-color:#8b5cf6"/>
      <stop offset="100%" style="stop-color:#6366f1"/>
    </linearGradient>
  </defs>
  <rect width="100" height="100" rx="12" fill="#0a0a0a"/>
  <!-- Image frame -->
  <rect x="12" y="18" width="45" height="38" rx="6" fill="none" stroke="url(#grad)" stroke-width="4"/>
  <!-- Mountain -->
  <path d="M16 50 L28 36 L40 50 L53 50 L53 52 L12 52 L12 50 Z" fill="url(#grad)"/>
  <!-- Sun -->
  <circle cx="22" cy="28" r="6" fill="url(#grad)"/>
  <!-- Arrow -->
  <path d="M50 37 L62 37 L62 33 L72 40 L62 47 L62 43 L50 43 Z" fill="url(#grad)"/>
  <!-- ASCII text -->
  <text x="75" y="32" font-family="monospace" font-size="14" font-weight="bold" fill="url(#grad)" text-anchor="middle">A</text>
  <text x="75" y="50" font-family="monospace" font-size="14" font-weight="bold" fill="url(#grad)" text-anchor="middle">1</text>
  <!-- Underlines -->
  <rect x="63" y="58" width="24" height="4" rx="2" fill="url(#grad)"/>
  <rect x="63" y="66" width="20" height="4" rx="2" fill="url(#grad)" opacity="0.7"/>
  <rect x="63" y="74" width="16" height="4" rx="2" fill="url(#grad)" opacity="0.5"/>
</svg>

